<mxfile host="app.diagrams.net" modified="2020-07-30T10:25:48.147Z" agent="5.0 (Windows NT 10.0; Win64; x64) AppleWebKit/537.36 (KHTML, like Gecko) Chrome/84.0.4147.89 Safari/537.36" etag="tHabL4d77rwUt5fbf6Pu" version="13.5.5" type="github">
  <diagram id="exN2t7OIq9R8vrr0f5IM" name="Page-1">
    <mxGraphModel dx="868" dy="627" grid="1" gridSize="10" guides="1" tooltips="1" connect="1" arrows="1" fold="1" page="1" pageScale="1" pageWidth="827" pageHeight="1169" math="0" shadow="0">
      <root>
        <mxCell id="0" />
        <mxCell id="1" parent="0" />
        <mxCell id="6-geUHeb56jEtTLqjx7Q-21" style="edgeStyle=none;rounded=0;orthogonalLoop=1;jettySize=auto;html=1;endArrow=block;endFill=1;entryX=0;entryY=0.5;entryDx=0;entryDy=0;" edge="1" parent="1" source="6-geUHeb56jEtTLqjx7Q-1" target="6-geUHeb56jEtTLqjx7Q-18">
          <mxGeometry relative="1" as="geometry" />
        </mxCell>
        <mxCell id="6-geUHeb56jEtTLqjx7Q-22" style="edgeStyle=none;rounded=0;orthogonalLoop=1;jettySize=auto;html=1;endArrow=block;endFill=1;" edge="1" parent="1" source="6-geUHeb56jEtTLqjx7Q-1" target="6-geUHeb56jEtTLqjx7Q-17">
          <mxGeometry relative="1" as="geometry" />
        </mxCell>
        <mxCell id="6-geUHeb56jEtTLqjx7Q-23" style="edgeStyle=none;rounded=0;orthogonalLoop=1;jettySize=auto;html=1;entryX=0;entryY=0.5;entryDx=0;entryDy=0;endArrow=block;endFill=1;" edge="1" parent="1" source="6-geUHeb56jEtTLqjx7Q-1" target="6-geUHeb56jEtTLqjx7Q-16">
          <mxGeometry relative="1" as="geometry" />
        </mxCell>
        <mxCell id="6-geUHeb56jEtTLqjx7Q-24" style="edgeStyle=none;rounded=0;orthogonalLoop=1;jettySize=auto;html=1;entryX=0;entryY=0.5;entryDx=0;entryDy=0;endArrow=block;endFill=1;" edge="1" parent="1" source="6-geUHeb56jEtTLqjx7Q-1" target="6-geUHeb56jEtTLqjx7Q-8">
          <mxGeometry relative="1" as="geometry" />
        </mxCell>
        <mxCell id="6-geUHeb56jEtTLqjx7Q-25" style="edgeStyle=none;rounded=0;orthogonalLoop=1;jettySize=auto;html=1;entryX=0;entryY=0.5;entryDx=0;entryDy=0;endArrow=block;endFill=1;" edge="1" parent="1" source="6-geUHeb56jEtTLqjx7Q-1" target="6-geUHeb56jEtTLqjx7Q-2">
          <mxGeometry relative="1" as="geometry" />
        </mxCell>
        <object label="農家" placeholders="1" id="6-geUHeb56jEtTLqjx7Q-1">
          <mxCell style="shape=umlActor;verticalLabelPosition=bottom;verticalAlign=top;html=1;" vertex="1" parent="1">
            <mxGeometry x="10" y="10" width="30" height="60" as="geometry" />
          </mxCell>
        </object>
        <mxCell id="6-geUHeb56jEtTLqjx7Q-2" value="出荷する" style="ellipse;whiteSpace=wrap;html=1;" vertex="1" parent="1">
          <mxGeometry x="200" y="330" width="140" height="40" as="geometry" />
        </mxCell>
        <mxCell id="6-geUHeb56jEtTLqjx7Q-8" value="資材を買う" style="ellipse;whiteSpace=wrap;html=1;" vertex="1" parent="1">
          <mxGeometry x="200" y="280" width="140" height="40" as="geometry" />
        </mxCell>
        <mxCell id="6-geUHeb56jEtTLqjx7Q-16" value="梱包する" style="ellipse;whiteSpace=wrap;html=1;" vertex="1" parent="1">
          <mxGeometry x="200" y="210" width="140" height="40" as="geometry" />
        </mxCell>
        <mxCell id="6-geUHeb56jEtTLqjx7Q-17" value="植える" style="ellipse;whiteSpace=wrap;html=1;" vertex="1" parent="1">
          <mxGeometry x="200" y="20" width="140" height="40" as="geometry" />
        </mxCell>
        <mxCell id="6-geUHeb56jEtTLqjx7Q-18" value="収穫する" style="ellipse;whiteSpace=wrap;html=1;" vertex="1" parent="1">
          <mxGeometry x="200" y="70" width="140" height="40" as="geometry" />
        </mxCell>
      </root>
    </mxGraphModel>
  </diagram>
</mxfile>
